<svg xmlns="http://www.w3.org/2000/svg" viewBox="0 0 694.24 94.98"><defs><style>.a{fill:#5ce500}.b{fill:#4b4e52}.c{fill:#7c878e}</style></defs><title>SitefinityCMS</title><path class="a" d="M76 23.09V63.7a3.13 3.13 0 0 1-1.41 2.45l-1.33.77-10.12 5.84-6.84 3.95-1.41.82V33.65l-38-21.94 18-10.42 1.65-1a3.14 3.14 0 0 1 2.83 0l25.09 14.53L76 21.49v1.63zM46.46 38.52l-7.79-4.5-18.26-10.53a3.15 3.15 0 0 0-2.83 0L1.41 32.82 0 33.64l27.46 15.85v31.69l16.14-9.36 1.42-.82a3.14 3.14 0 0 0 1.44-2.42V38.52zM0 65.34l19 11V54.37z"/><path class="b" d="M117.83 21.46H97.12v56.08h9.19v-22h11.59c12.55 0 19.46-6.13 19.46-17.26 0-5.05-1.91-16.81-19.53-16.81m10.19 17c0 6.32-3.28 8.9-11.33 8.9h-10.38V29.74h11.59c6.81 0 10.11 2.84 10.11 8.68m36.69-1.74l.69.34-1.56 8.29-1.07-.33a9 9 0 0 0-2.65-.41c-8.58 0-9.28 6.84-9.28 15.1v17.87h-8.51V36.36h8v5c2.17-3.34 4.8-5.07 8.25-5.49a11.58 11.58 0 0 1 6.15.84m20.91-1.15c-6.7 0-12.06 2.55-15.51 7.37-3.63 5.07-4.16 11-4.16 14.12 0 13 7.72 21.42 19.68 21.42 14.53 0 19.68-11.7 19.68-21.72a23 23 0 0 0-4.86-14.76c-3.51-4.22-8.65-6.46-14.88-6.46m0 35.31c-6.66 0-10.79-5.3-10.79-13.82s4.14-14 10.79-14 10.88 5.45 10.88 13.85c0 8.61-4.17 14-10.87 14m91.18-34.16l.69.31-1.56 8.29-1.07-.33a9 9 0 0 0-2.65-.41c-8.58 0-9.28 6.84-9.28 15.1v17.87h-8.44V36.36h8v5c2.17-3.34 4.8-5.07 8.25-5.49a11.57 11.57 0 0 1 6.15.84m30.56 27.65l-.16.45c-1.78 5.06-6 6.12-9.27 6.12-6.44 0-10.58-4.27-11-11.21h29.07l.11-.81a24.88 24.88 0 0 0 .09-3.28v-.74c-.43-11.53-7.94-19.27-18.7-19.27-6.28 0-11.44 2.47-14.9 7.14a24.55 24.55 0 0 0-4.41 14.35c0 12.72 7.91 21.28 19.69 21.28 9.11 0 15.38-4.63 17.67-13l.27-1h-8.52zm-20.13-12c.72-5.71 4.62-9.33 10.17-9.33 4.24 0 9.26 2.47 10 9.33h-20.23zm-48.36-12.54a14.55 14.55 0 0 0-10.95-4.29c-12.48 0-18.17 11-18.17 21.19 0 10.47 5.62 21 18.17 21a14.58 14.58 0 0 0 10.62-4.31c0 1.81-.08 3.54-.13 4.28-.46 6.79-3.73 10-10.27 10-3.56 0-7.64-1.26-8.43-4.81l-.17-.78h-8.38l.14 1.12c.88 7.26 7.25 11.77 16.63 11.77 8.23 0 14.09-3.1 16.93-9 1.37-2.82 2.07-6.94 2.07-12.23v-37.4h-8.05v3.46zm-10.41 30.35c-3 0-9.89-1.35-9.89-13.82 0-8.2 3.87-13.29 10.11-13.29 4.82 0 10 3.49 10 13.29 0 8.65-3.81 13.82-10.19 13.82m127-5c0 6.55-5.44 13.16-17.58 13.16-10.74 0-17.13-4.65-18-13.09l-.09-.87h8.37l.13.63c1 5.08 5.86 6.14 9.74 6.14 4.25 0 8.78-1.37 8.78-5.21 0-1.95-1.27-3.33-3.76-4.1-1.48-.44-3.3-1-5.22-1.49-3.31-.93-6.74-1.89-8.85-2.62-5.22-1.87-8.22-5.51-8.22-10 0-8.3 8.08-12 16.09-12 10.71 0 16.25 4 16.95 12.33l.09.77h-8.25l-.11-.65c-.83-4.78-5.58-5.49-8.34-5.49-2.38 0-7.92.43-7.92 4.37 0 1.79 1.53 3.11 4.69 4 .94.26 2.34.62 4 1 3.36.87 7.54 2 9.65 2.68 5.25 1.84 7.9 5.31 7.9 10.31m39.3 0c0 6.55-5.44 13.16-17.58 13.16-10.74 0-17.13-4.65-18-13.09l-.09-.87h8.37l.12.63c1 5.08 5.86 6.14 9.74 6.14 4.25 0 8.78-1.37 8.78-5.21 0-1.95-1.27-3.33-3.76-4.1-1.48-.44-3.3-1-5.23-1.49-3.31-.93-6.74-1.89-8.84-2.62-5.22-1.87-8.22-5.51-8.22-10 0-8.3 8.08-12 16.09-12 10.71 0 16.25 4 16.94 12.33l.06.9h-8.25l-.11-.65c-.83-4.78-5.58-5.49-8.34-5.49-2.38 0-7.92.43-7.92 4.37 0 1.79 1.53 3.11 4.69 4 .94.26 2.34.62 4 1 3.36.87 7.54 2 9.65 2.68 5.24 1.84 7.9 5.31 7.9 10.31"/><path class="c" d="M417.88 67.52a23.94 23.94 0 0 0 17.06 6.55c7.9 0 12.93-4 12.93-10.32 0-5.57-3.14-7.81-9.88-10.68l-8.08-3.41c-5.75-2.42-11.94-5.75-11.94-14.1 0-9.34 7.81-14 16.7-14a26.65 26.65 0 0 1 15.44 4.67v5.12a22.86 22.86 0 0 0-15.36-5.53c-6.82 0-12.3 3.23-12.3 9.7 0 5.39 3.77 7.72 9.61 10.06l8.53 3.59c8.08 3.5 11.76 7.45 11.76 14.54 0 8.8-7.36 14.63-17.42 14.63-7.36 0-13.47-2.33-17.06-5.48v-5.3zM460.46 28.56a3 3 0 0 1-3.05-3.05 3.055 3.055 0 0 1 6.11 0 3 3 0 0 1-3.06 3.05zm2.24 48.93h-4.49V37.63h4.49v39.86zM480.14 77.49h-4.49v-36h-8.53v-3.86h8.53V27.39h4.49v10.24h9.43v3.86h-9.43v36zM509.13 74.35a16 16 0 0 0 11.22-4v4.47c-3 2.42-6.91 3.5-11.58 3.5-11.13 0-18.58-7.9-18.58-20.38 0-12.3 6.64-21.1 17.24-21.1 10.41 0 15.8 7.9 15.8 19.48v1.6h-28.65c0 10.77 6.29 16.43 14.55 16.43zm-14.37-20.11h24.15c-.27-7-3.59-13.47-11.49-13.47-6.55 0-11.58 4.85-12.66 13.47zM546.62 23.26a8.4 8.4 0 0 0-4-1c-4.22 0-7.27 3.05-7.27 8.62v6.73h9.34v3.86h-9.34v36h-4.4v-36h-6.49v-3.84h6.46v-7.19c0-7.27 4.76-12.12 11.22-12.12a11.76 11.76 0 0 1 4.49.81v4.13zM552.46 28.56a3 3 0 0 1-3.05-3.05 3.055 3.055 0 1 1 6.11 0 3 3 0 0 1-3.06 3.05zm2.24 48.93h-4.49V37.63h4.49v39.86zM563.37 37.63h4.49V44a15.53 15.53 0 0 1 12.75-7.18c9.07 0 13.85 5.83 13.85 14.27v26.4h-4.4V51.72c0-6.2-3.14-10.77-10.24-10.77-5.48 0-10 3.86-11.94 8.62v27.92h-4.49V37.63zM605.05 28.56a3 3 0 0 1-3.05-3.05 3.055 3.055 0 1 1 6.11 0 3 3 0 0 1-3.06 3.05zm2.24 48.93h-4.49V37.63h4.49v39.86zM624.75 77.49h-4.49v-36h-8.53v-3.86h8.53V27.39h4.49v10.24h9.43v3.86h-9.43v36zM645.68 92.75l6.46-15.8-15.62-39.32h4.76l13.11 33.76 13.07-33.76h4.58l-21.91 55.13h-4.49zM677.95 30.82h7v1.47h-2.6v6.67h-1.73v-6.7h-2.63v-1.44zm12.18 6.32l-2.31-3.46v5.29h-1.67v-8.15h1.57l2.47 3.81 2.5-3.81h1.54v8.14h-1.67v-5.32l-2.28 3.46h-.16z"/><path class="b" d="M401.59 40.73a5.87 5.87 0 1 1 5.8-5.86 5.75 5.75 0 0 1-5.8 5.86m0-10.74a4.87 4.87 0 1 0 4.74 4.83 4.7 4.7 0 0 0-4.74-4.87m-.67 6v2h-1.73v-6.2h2.88a2.06 2.06 0 0 1 2.28 2.15 1.8 1.8 0 0 1-1.19 1.86l1.41 2.15h-1.92l-1.19-2h-.54zm1-2.76h-1v1.38h1a.68.68 0 0 0 .8-.67.7.7 0 0 0-.8-.71"/></svg>