<?xml version="1.0" encoding="utf-8"?>
<!-- Generator: Adobe Illustrator 16.0.0, SVG Export Plug-In . SVG Version: 6.00 Build 0)  -->
<!DOCTYPE svg PUBLIC "-//W3C//DTD SVG 1.1//EN" "http://www.w3.org/Graphics/SVG/1.1/DTD/svg11.dtd">
<svg version="1.1" id="Layer_1" xmlns="http://www.w3.org/2000/svg" xmlns:xlink="http://www.w3.org/1999/xlink" x="0px" y="0px"
	 width="512px" height="512px" viewBox="0 0 512 512" enable-background="new 0 0 512 512" xml:space="preserve">
<path d="M509.9,223.4C493.9,97.4,386.3,0,256,0l0,0c0,0,0,0,0,0C114.6,0,0,114.6,0,256s114.6,256,256,256c0,0,0,0,0,0l0,0
	c130.3,0,237.9-97.4,253.9-223.4c1.4-10.7,2.1-21.6,2.1-32.6C512,245,511.3,234.1,509.9,223.4z M490.5,256
	c0,31.7-6.2,62.4-18.4,91.3c-11.8,27.9-28.7,53-50.3,74.5c-21.5,21.5-46.6,38.5-74.5,50.3c-28.9,12.2-59.6,18.4-91.3,18.4
	s-62.4-6.2-91.3-18.4c-27.9-11.8-53-28.7-74.5-50.3c-21.5-21.5-38.5-46.6-50.3-74.5c-12.2-28.9-18.4-59.6-18.4-91.3
	s6.2-62.4,18.4-91.3c11.8-27.9,28.7-53,50.3-74.5c21.5-21.5,46.6-38.5,74.5-50.3c28.9-12.2,59.6-18.4,91.3-18.4s62.4,6.2,91.3,18.4
	c27.9,11.8,53,28.7,74.5,50.3c21.5,21.5,38.5,46.6,50.3,74.5C484.3,193.6,490.5,224.3,490.5,256z M287.5,107.3
	c18.8,0.4,33.2,0.8,44.1,1.1v49.1h-27.2c0,0-27.9-2.4-27.9,23.2V216h52.2l-6.5,52.5h-45.7v136.3H222V268.5h-46.7V216H222v-40.2
	C222,175.7,219.5,105.8,287.5,107.3z"/>
</svg>
