<?xml version="1.0" encoding="utf-8"?>
<!-- Generator: Adobe Illustrator 16.0.0, SVG Export Plug-In . SVG Version: 6.00 Build 0)  -->
<!DOCTYPE svg PUBLIC "-//W3C//DTD SVG 1.1//EN" "http://www.w3.org/Graphics/SVG/1.1/DTD/svg11.dtd">
<svg version="1.1" id="Layer_1" xmlns="http://www.w3.org/2000/svg" xmlns:xlink="http://www.w3.org/1999/xlink" x="0px" y="0px"
	 width="512px" height="512px" viewBox="0 0 512 512" enable-background="new 0 0 512 512" xml:space="preserve">
<path d="M373,226.5h33v18.8h-33v32.2h-18.8v-32.2h-32.2v-18.8h32.2v-33H373V226.5z M311.7,293.6c5.7,8.1,8.7,18.7,8.9,31.9
	c0,18.6-8.2,35.1-24.6,49.5c-17,14.9-41.5,22.6-73.5,23.1c-26.8-0.3-46.8-6-60-17.2c-13.3-10.5-20-23-20-37.6c0-7.1,2.2-15,6.5-23.8
	c4.2-8.7,11.8-16.4,22.9-23c12.4-7.1,25.4-11.9,39.1-14.2c13.5-2,24.7-3.1,33.7-3.4c-2.8-3.6-5.2-7.5-7.4-11.7
	c-2.5-4-3.8-8.9-3.8-14.5c0-3.4,0.5-6.2,1.4-8.5c0.8-2.4,1.6-4.6,2.3-6.6c-4.3,0.5-8.4,0.7-12.3,0.7c-20.4-0.2-35.9-6.7-46.6-19.3
	c-11.2-11.7-16.8-25.4-16.8-41c0-18.9,7.9-36,23.8-51.4c10.9-9,22.2-14.9,33.9-17.6c11.6-2.4,22.5-3.6,32.6-3.6h76.5l-23.6,13.9
	h-23.6c2.4,1.5,5.1,3.7,8.1,6.6c2.9,3,5.7,6.7,8.5,11.1c2.6,4.1,5,9,7,14.6c1.7,5.6,2.5,12.2,2.5,19.7c-0.2,13.7-3.2,24.7-9.1,33
	c-2.9,4-5.9,7.7-9.1,11.1c-3.5,3.4-7.3,6.8-11.3,10.3c-2.3,2.4-4.4,5.1-6.3,8.1c-2.3,3.1-3.4,6.7-3.4,10.9c0,4,1.2,7.3,3.5,9.9
	c2,2.5,3.9,4.7,5.8,6.6l13,10.7C298.6,278.3,305.6,285.6,311.7,293.6z M267.9,216.9c3.2-4.9,5.3-9.9,6.2-15c0.6-5.1,0.8-9.5,0.8-13
	c0-15.2-3.9-30.4-11.6-45.8c-3.6-7.4-8.4-13.4-14.3-18c-6-4.4-13-6.7-20.8-7c-10.4,0.3-19,4.4-25.9,12.6c-5.8,8.5-8.6,18-8.3,28.5
	c0,13.9,4,28.4,12.2,43.4c3.9,7,9,13,15.2,17.8c6.2,4.9,13.3,7.3,21.3,7.3C252.7,227.5,261.1,223.8,267.9,216.9z M296,340.5
	c0-9.7-3.2-18.3-9.5-25.5c-6.7-6.9-17.2-15.3-31.4-25.3c-2.4-0.3-5.3-0.4-8.6-0.4c-2-0.3-6.9,0-15,0.8c-7.9,1.1-16,2.9-24.3,5.4
	c-2,0.8-4.7,1.9-8.2,3.4c-3.5,1.6-7.1,3.9-10.8,6.9c-3.5,3.1-6.5,7-9,11.6c-2.8,4.9-4.2,10.7-4.2,17.6c0,13.5,6.1,24.6,18.3,33.4
	c11.6,8.7,27.4,13.2,47.5,13.5c18-0.3,31.8-4.2,41.3-12C291.4,362.3,296,352.5,296,340.5z M512,256c0,141.4-114.6,256-256,256
	S0,397.4,0,256S114.6,0,256,0S512,114.6,512,256z M421.8,421.8c21.5-21.5,38.5-46.6,50.3-74.5c12.2-28.9,18.4-59.6,18.4-91.3
	s-6.2-62.4-18.4-91.3c-11.8-27.9-28.7-53-50.3-74.5c-21.5-21.5-46.6-38.5-74.5-50.3c-28.9-12.2-59.6-18.4-91.3-18.4
	s-62.4,6.2-91.3,18.4c-27.9,11.8-53,28.7-74.5,50.3c-21.5,21.5-38.5,46.6-50.3,74.5c-12.2,28.9-18.4,59.6-18.4,91.3
	s6.2,62.4,18.4,91.3c11.8,27.9,28.7,53,50.3,74.5c21.5,21.5,46.6,38.5,74.5,50.3c28.9,12.2,59.6,18.4,91.3,18.4s62.4-6.2,91.3-18.4
	C375.2,460.3,400.3,443.4,421.8,421.8z"/>
</svg>
