<?xml version="1.0" encoding="utf-8"?>
<!-- Generator: Adobe Illustrator 16.0.0, SVG Export Plug-In . SVG Version: 6.00 Build 0)  -->
<!DOCTYPE svg PUBLIC "-//W3C//DTD SVG 1.1//EN" "http://www.w3.org/Graphics/SVG/1.1/DTD/svg11.dtd">
<svg version="1.1" id="Layer_1" xmlns="http://www.w3.org/2000/svg" xmlns:xlink="http://www.w3.org/1999/xlink" x="0px" y="0px"
	 width="512px" height="512px" viewBox="0 0 512 512" enable-background="new 0 0 512 512" xml:space="preserve">
<path d="M146.9,192.5h48.9v157.2h-48.9V192.5z M171.4,114.4c-15.7,0-28.4,12.7-28.4,28.3c0,15.6,12.7,28.3,28.4,28.3
	c15.6,0,28.3-12.7,28.3-28.3C199.8,127.1,187.1,114.4,171.4,114.4z M320.3,188.6c-23.8,0-39.7,13-46.3,25.4h-0.7v-21.5h-46.9v157.2
	h48.8V272c0-20.5,3.9-40.4,29.3-40.4c25.1,0,25.4,23.4,25.4,41.7v76.4H379v-86.2C379,221.2,369.8,188.6,320.3,188.6z M512,256
	c0,141.4-114.6,256-256,256C114.6,512,0,397.4,0,256S114.6,0,256,0C397.4,0,512,114.6,512,256z M472.1,347.3
	c12.2-28.9,18.4-59.6,18.4-91.3s-6.2-62.4-18.4-91.3c-11.8-27.9-28.7-53-50.3-74.5c-21.5-21.5-46.6-38.5-74.5-50.3
	c-28.9-12.2-59.6-18.4-91.3-18.4c-31.7,0-62.4,6.2-91.3,18.4c-27.9,11.8-53,28.7-74.5,50.3c-21.5,21.5-38.5,46.6-50.3,74.5
	c-12.2,28.9-18.4,59.6-18.4,91.3s6.2,62.4,18.4,91.3c11.8,27.9,28.7,53,50.3,74.5c21.5,21.5,46.6,38.5,74.5,50.3
	c28.9,12.2,59.6,18.4,91.3,18.4c31.7,0,62.4-6.2,91.3-18.4c27.9-11.8,53-28.7,74.5-50.3C443.4,400.3,460.3,375.2,472.1,347.3z"/>
</svg>
