<?xml version="1.0" encoding="utf-8"?>
<!-- Generator: Adobe Illustrator 16.0.0, SVG Export Plug-In . SVG Version: 6.00 Build 0)  -->
<!DOCTYPE svg PUBLIC "-//W3C//DTD SVG 1.1//EN" "http://www.w3.org/Graphics/SVG/1.1/DTD/svg11.dtd">
<svg version="1.1" id="Layer_1" xmlns="http://www.w3.org/2000/svg" xmlns:xlink="http://www.w3.org/1999/xlink" x="0px" y="0px"
	 width="512px" height="512px" viewBox="0 0 512 512" enable-background="new 0 0 512 512" xml:space="preserve">
<path d="M369,182.4c11.2-1.3,21.9-4.3,31.8-8.7c-7.4,11.1-16.8,20.9-27.6,28.7c0.1,2.4,0.2,4.8,0.2,7.2
	c0,73.2-55.7,157.5-157.5,157.5c-31.3,0-60.4-9.2-84.9-24.9c4.3,0.5,8.7,0.8,13.2,0.8c25.9,0,49.8-8.8,68.8-23.7
	c-24.2-0.4-44.7-16.5-51.7-38.4c3.4,0.6,6.8,1,10.4,1c5,0,9.9-0.7,14.6-1.9c-25.3-5.1-44.4-27.5-44.4-54.3c0-0.2,0-0.5,0-0.7
	c7.5,4.1,16,6.6,25.1,6.9c-14.9-9.9-24.6-26.9-24.6-46.1c0-10.1,2.7-19.7,7.5-27.8c27.3,33.5,68.1,55.5,114.1,57.8
	c-0.9-4.1-1.4-8.3-1.4-12.6c0-30.6,24.8-55.4,55.4-55.4c15.9,0,30.3,6.7,40.4,17.5c12.6-2.5,24.5-7.1,35.2-13.4
	C389.3,164.7,380.5,175.5,369,182.4z M512,256c0,141.4-114.6,256-256,256S0,397.4,0,256S114.6,0,256,0S512,114.6,512,256z
	 M421.8,421.8c21.5-21.5,38.5-46.6,50.3-74.5c12.2-28.9,18.4-59.6,18.4-91.3s-6.2-62.4-18.4-91.3c-11.8-27.9-28.7-53-50.3-74.5
	c-21.5-21.5-46.6-38.5-74.5-50.3c-28.9-12.2-59.6-18.4-91.3-18.4s-62.4,6.2-91.3,18.4c-27.9,11.8-53,28.7-74.5,50.3
	c-21.5,21.5-38.5,46.6-50.3,74.5c-12.2,28.9-18.4,59.6-18.4,91.3s6.2,62.4,18.4,91.3c11.8,27.9,28.7,53,50.3,74.5
	c21.5,21.5,46.6,38.5,74.5,50.3c28.9,12.2,59.6,18.4,91.3,18.4s62.4-6.2,91.3-18.4C375.2,460.3,400.3,443.4,421.8,421.8z"/>
</svg>
